HIERARCHY
ROOT pelvis
{
  OFFSET 0 100 0
  CHANNELS 6 Xposition Yposition Zposition Zrotation Xrotation Yrotation
  JOINT pelvis_right_femur
  {
    OFFSET -10.78128 -3.44521 -0.5502486
    CHANNELS 3 Zrotation Xrotation Yrotation
    JOINT right_femur_tibia
    {
      OFFSET -0.8047443 -44.0398 -0.1307829
      CHANNELS 3 Zrotation Xrotation Yrotation
      JOINT right_tibia_foot
      {
        OFFSET 3.006224 -47.83518 -5
        CHANNELS 3 Zrotation Xrotation Yrotation
        End Site
        {
          OFFSET 0 -5 15
        }
      }
    }
  }
  JOINT pelvis_left_femur
  {
    OFFSET 10.78128 -3.44521 -0.5502486
    CHANNELS 3 Zrotation Xrotation Yrotation
    JOINT left_femur_tibia
    {
      OFFSET 0.8047443 -44.0398 -0.1307829
      CHANNELS 3 Zrotation Xrotation Yrotation
      JOINT left_tibia_foot
      {
        OFFSET -4.370144 -48.10324 -4.275266
        CHANNELS 3 Zrotation Xrotation Yrotation
        End Site
        {
          OFFSET 0 -5 15
        }
      }
    }
  }
  JOINT pelvis_spine1
  {
    OFFSET 0 6.468898 -3.129235
    CHANNELS 3 Zrotation Xrotation Yrotation
    JOINT spine1
    {
      OFFSET 0 23.15396 4.99043
      CHANNELS 3 Zrotation Xrotation Yrotation
      JOINT spine2
      {
        OFFSET 0 20.79997 -5.064912
        CHANNELS 3 Zrotation Xrotation Yrotation
        JOINT neck
        {
          OFFSET 0 14.38658 9.616178
          CHANNELS 3 Zrotation Xrotation Yrotation
          End Site
          {
            OFFSET 0 20 0
          }
        }
      }
      JOINT right_manubrium
      {
        OFFSET -5.722621 16.35077 3.967754
        CHANNELS 3 Zrotation Xrotation Yrotation
        JOINT right_clavicle
        {
          OFFSET -13.16364 1.694482 -4.693211
          CHANNELS 3 Zrotation Xrotation Yrotation
          JOINT right_humerus
          {
            OFFSET -28.5034 -0.3100689 -2.792744
            CHANNELS 3 Zrotation Xrotation Yrotation
            JOINT right_radius
            {
              OFFSET -25.15693 0.02248979 -1.271978
              CHANNELS 3 Zrotation Xrotation Yrotation
              End Site
              {
                OFFSET -15 0 0
              }
            }
          }
        }
      }
      JOINT left_manubrium
      {
        OFFSET 5.722621 16.35077 3.967754
        CHANNELS 3 Zrotation Xrotation Yrotation
        JOINT left_clavicle
        {
          OFFSET 13.16364 1.694482 -4.693211
          CHANNELS 3 Zrotation Xrotation Yrotation
          JOINT left_humerus
          {
            OFFSET 29.39168 -1.063119 -2.237045
            CHANNELS 3 Zrotation Xrotation Yrotation
            JOINT left_radius
            {
              OFFSET 24.59957 -0.9528479 0.9047498
              CHANNELS 3 Zrotation Xrotation Yrotation
              End Site
              {
                OFFSET 15 -0 -0
              }
            }
          }
        }
      }
    }
  }
}
MOTION
Frames: 6
Frame Time: 0.0416666666667
0 103.5113 0 0.660441 -4.411975 0.1607614 2.948555 -13.97655 2.616396 1.16738e-08 24.48301 -1.546007e-08 -4.605255 -5.999565 -4.2995 -4.977538 8.468974 -12.82009 -6.527828e-09 21.72991 4.755434e-08 -1.549873 -15.00783 16.68588 -2.343004 -1.073362 3.360268 1.713075 9.648472 -7.102098 1.222217 22.16151 6.48711 2.677654 -20.39062 7.820429 2.486666 -17.12386 10.84728 87.21937 28.64987 -19.07328 -2.578718e-09 1.375122e-09 11.3824 -16.61573 10.70167 8.551365 5.003789 -20.31821 -4.128564 -86.34352 25.31678 14.36054 7.88331e-09 -2.010517e-09 -20.1311 2.308899 11.89901 9.791356
0.05446909 103.4847 4.663318 0.6443176 -4.267663 0.2889455 3.000138 -15.46479 2.594531 1.169464e-08 24.38251 -1.555187e-08 -4.684586 -5.764079 -4.415347 -5.095175 9.784957 -13.06687 -6.676916e-09 21.71662 4.78344e-08 -1.470557 -15.46083 16.62605 -2.366956 -1.110781 3.20959 1.812092 9.655231 -7.29303 1.212022 22.21604 6.570686 2.723999 -20.56211 7.907062 2.57087 -16.95898 10.8723 87.87159 28.79934 -19.77796 -2.624243e-09 1.40388e-09 10.96786 -16.38539 10.70799 8.346388 5.115671 -20.61429 -4.171793 -86.34957 25.40048 13.85149 7.946347e-09 -2.006369e-09 -20.80494 2.517514 12.04483 9.590408
0.07848655 103.4576 9.298532 0.622761 -4.086407 0.4414634 3.055226 -17.21864 2.564202 1.168739e-08 24.21406 -1.562338e-08 -4.769365 -5.470632 -4.54459 -5.222077 11.34257 -13.33665 -6.822273e-09 21.65796 4.806721e-08 -1.377664 -15.97345 16.52187 -2.391207 -1.15325 3.022668 1.925954 9.644211 -7.507091 1.199895 22.23759 6.657616 2.771277 -20.72761 7.993724 2.663138 -16.72853 10.879 88.46102 28.95546 -20.54278 -2.67318e-09 1.436537e-09 10.44933 -16.07509 10.69589 8.081061 5.240705 -20.92845 -4.216243 -86.16977 25.48053 13.17649 8.007436e-09 -1.995612e-09 -21.57181 2.765398 12.19467 9.330087
0.07140357 103.428 13.89645 0.5989695 -3.887628 0.6200699 3.107618 -19.04826 2.528942 1.165271e-08 23.9956 -1.566683e-08 -4.850184 -5.150882 -4.673098 -5.343316 12.97323 -13.60029 -6.947774e-09 21.56002 4.822681e-08 -1.281804 -16.49023 16.38451 -2.413151 -1.196152 2.819677 2.042213 9.616421 -7.720981 1.187233 22.2236 6.738387 2.814261 -20.86899 8.070896 2.753522 -16.45727 10.8664 88.92317 29.10274 -21.28452 -2.720136e-09 1.469661e-09 9.882757 -15.71835 10.66582 7.784134 5.365346 -21.22649 -4.25701 -85.82277 25.54507 12.4073 8.060065e-09 -1.979376e-09 -22.34854 3.025902 12.33179 9.038341
0.03098468 103.3962 18.44961 0.5716751 -3.666653 0.8270135 3.161441 -21.03306 2.489627 1.159991e-08 23.73456 -1.569666e-08 -4.933155 -4.796277 -4.808693 -5.465166 14.7455 -13.87642 -7.069031e-09 21.4331 4.835292e-08 -1.179208 -17.04096 16.21974 -2.435162 -1.241868 2.594966 2.166793 9.576897 -7.947635 1.173554 22.18788 6.8204 2.857382 -21.00475 8.14721 2.84834 -16.14569 10.84151 89.34069 29.25255 -22.05852 -2.768613e-09 1.505336e-09 9.253712 -15.31301 10.62214 7.45093 5.497316 -21.53312 -4.297797 -85.3574 25.60032 11.53546 8.111198e-09 -1.959278e-09 -23.17803 3.310022 12.46894 8.710154
-0.03737742 103.3602 22.95269 0.5462423 -3.454161 1.060544 3.2039 -22.83704 2.448664 1.152026e-08 23.44657 -1.568738e-08 -4.999654 -4.457897 -4.924587 -5.564934 16.36292 -14.10726 -7.148485e-09 21.27413 4.83688e-08 -1.087713 -17.5203 16.03547 -2.451166 -1.281795 2.381251 2.276874 9.52177 -8.142355 1.161257 22.1121 6.883102 2.888756 -21.09108 8.200643 2.927879 -15.82594 10.79575 89.53672 29.37725 -22.69414 -2.807849e-09 1.53652e-09 8.651541 -14.90575 10.56114 7.124585 5.610437 -21.77651 -4.328539 -84.74577 25.62185 10.66493 8.144624e-09 -1.934444e-09 -23.90433 3.570212 12.57071 8.388283
